<?xml version="1.0" encoding="iso-8859-1"?>
<!-- Generator: Adobe Illustrator 16.0.0, SVG Export Plug-In . SVG Version: 6.00 Build 0)  -->
<!DOCTYPE svg PUBLIC "-//W3C//DTD SVG 1.1//EN" "http://www.w3.org/Graphics/SVG/1.1/DTD/svg11.dtd">
<svg version="1.1" id="Capa_1" xmlns="http://www.w3.org/2000/svg" xmlns:xlink="http://www.w3.org/1999/xlink" x="0px" y="0px"
	 width="502.432px" height="502.432px" viewBox="0 0 502.432 502.432" style="enable-background:new 0 0 502.432 502.432;"
	 xml:space="preserve">
<g>
	<path d="M196.052,212.818l9.801,76.786h-27.777l6.539-76.786H196.052z M394.005,52.637h-18.966v10.843h18.966V52.637z
		 M419.761,52.637v10.843h82.671V52.637H419.761z M394.005,74.322h-18.966v5.422h18.966V74.322z M419.761,79.744h82.671v-5.422
		h-82.671V79.744z M420.434,125.822h81.998v-5.417h-81.998V125.822z M394.005,85.841h-18.966v12.741h18.966V85.841z M419.761,98.582
		h82.671V85.841h-82.671V98.582z M419.761,111.387h0.673v6.304h81.998v-6.369h-82.671V111.387z M375.039,142.536h18.977v-10.827
		h-18.977V142.536z M420.434,131.715h-0.673v10.826h82.671v-10.848h-81.998V131.715z M419.761,158.802h82.671v-5.423h-82.671
		V158.802z M375.039,158.802h18.977v-5.423h-18.977V158.802z M419.761,204.879h82.671v-5.418h-82.671V204.879z M375.039,204.879
		h18.977v-5.418h-18.977V204.879z M375.039,177.647h18.977v-12.741h-18.977V177.647z M419.761,177.647h82.671v-12.741h-82.671
		V177.647z M375.039,196.75h18.977v-6.372h-18.977V196.75z M419.761,196.75h82.671v-6.372h-82.671V196.75z M405.188,111.387h-84.147
		V75.583c0-11.729,9.511-21.242,21.236-21.242c3.893,0,7.488,1.119,10.621,2.947V41.274H142.141c-4.272,0-8.33,0.873-12.061,2.363
		c-6.646-1.501-13.522-2.363-20.619-2.363c-51.429,0-93.123,41.693-93.123,93.125c0,25.108,8.545,47.002,26.146,64.603
		C57.731,313.03,0,428.479,0,428.479c0,18.052,14.628,32.679,32.678,32.679h84.959c18.046,0,32.672-14.627,32.672-32.679
		l26.138-229.477c0-4.137,1.629-9.057,7.632-9.057c10.336,0,168.819,0,168.819,0v-12.747c-3.139,1.823-6.729,2.947-10.626,2.947
		c-11.725,0-21.236-9.507-21.236-21.242v-38.027h84.152v84.329h4.066V51.056h-4.066V111.387L405.188,111.387z"/>
</g>
<g>
</g>
<g>
</g>
<g>
</g>
<g>
</g>
<g>
</g>
<g>
</g>
<g>
</g>
<g>
</g>
<g>
</g>
<g>
</g>
<g>
</g>
<g>
</g>
<g>
</g>
<g>
</g>
<g>
</g>
</svg>
